<svg xmlns="http://www.w3.org/2000/svg" width="190" height="67.418" viewBox="0 0 190 67.418">
  <g id="Raggruppa_7" data-name="Raggruppa 7" transform="translate(-1430 -42)">
    <g id="Raggruppa_6" data-name="Raggruppa 6" transform="translate(1430 42)">
      <g id="Raggruppa_2" data-name="Raggruppa 2" transform="translate(32.19 57.519)">
        <g id="Raggruppa_1" data-name="Raggruppa 1">
          <path id="Tracciato_1" data-name="Tracciato 1" d="M309.036,326.766a1.792,1.792,0,0,1-1.164.424,1.494,1.494,0,0,1-1.588-1.621v-3.361h-1.164v-.457h1.164V320h.533v1.751h1.991v.457h-1.991v3.329a1.046,1.046,0,0,0,1.088,1.153,1.43,1.43,0,0,0,.925-.359Z" transform="translate(-305.119 -319.238)" fill="#6e7174"/>
          <path id="Tracciato_2" data-name="Tracciato 2" d="M319.16,326.047h-4.819a2.2,2.2,0,0,0,2.165,2.263,2.077,2.077,0,0,0,2.067-1.36l.468.109a2.517,2.517,0,0,1-2.535,1.719,2.681,2.681,0,0,1-2.687-2.763,2.719,2.719,0,0,1,2.752-2.807,2.56,2.56,0,0,1,2.589,2.644Zm-4.8-.414h4.265a2.012,2.012,0,0,0-2.056-1.947A2.216,2.216,0,0,0,314.363,325.633Z" transform="translate(-309.423 -320.825)" fill="#6e7174"/>
          <path id="Tracciato_3" data-name="Tracciato 3" d="M331.182,327.015l.49.141a2.424,2.424,0,0,1-2.448,1.621,2.785,2.785,0,0,1,0-5.57,2.5,2.5,0,0,1,2.458,1.675l-.5.164a1.959,1.959,0,0,0-1.958-1.339,2.2,2.2,0,0,0-2.22,2.285,2.181,2.181,0,0,0,2.22,2.3A1.956,1.956,0,0,0,331.182,327.015Z" transform="translate(-315.687 -320.825)" fill="#6e7174"/>
          <path id="Tracciato_4" data-name="Tracciato 4" d="M344.762,323.159v3.166h-.533v-3.09a1.677,1.677,0,0,0-1.676-1.861,2.058,2.058,0,0,0-2.121,2.285v2.665H339.9v-7.833h.533v3.645a2.335,2.335,0,0,1,2.186-1.262A2.1,2.1,0,0,1,344.762,323.159Z" transform="translate(-322.325 -318.492)" fill="#6e7174"/>
          <path id="Tracciato_5" data-name="Tracciato 5" d="M358.286,325.492v3.166h-.533v-3.09a1.677,1.677,0,0,0-1.675-1.861,2.058,2.058,0,0,0-2.122,2.285v2.665h-.533v-5.32h.533v1.132a2.336,2.336,0,0,1,2.186-1.262A2.1,2.1,0,0,1,358.286,325.492Z" transform="translate(-329.015 -320.825)" fill="#6e7174"/>
          <path id="Tracciato_6" data-name="Tracciato 6" d="M371.528,326a2.8,2.8,0,1,1-2.8-2.774A2.725,2.725,0,0,1,371.528,326Zm-.522,0a2.274,2.274,0,1,0-2.274,2.306A2.234,2.234,0,0,0,371.006,326Z" transform="translate(-335.206 -320.835)" fill="#6e7174"/>
          <path id="Tracciato_7" data-name="Tracciato 7" d="M380.128,326.325v-7.833h.533v7.833Z" transform="translate(-342.226 -318.492)" fill="#6e7174"/>
          <path id="Tracciato_8" data-name="Tracciato 8" d="M389.9,326a2.8,2.8,0,1,1-2.8-2.774A2.725,2.725,0,0,1,389.9,326Zm-.522,0a2.274,2.274,0,1,0-2.274,2.306A2.234,2.234,0,0,0,389.376,326Z" transform="translate(-344.293 -320.835)" fill="#6e7174"/>
          <path id="Tracciato_9" data-name="Tracciato 9" d="M402.827,328.288a2.374,2.374,0,0,1-2.589,2.448,2.577,2.577,0,0,1-2.622-1.49l.468-.283a2.105,2.105,0,0,0,2.154,1.284,1.934,1.934,0,0,0,2.067-2.013v-1.012a2.441,2.441,0,0,1-2.176,1.142,2.569,2.569,0,1,1,0-5.135,2.433,2.433,0,0,1,2.176,1.131v-1.012h.522Zm-.522-2.5a2.053,2.053,0,0,0-2.111-2.089,2.1,2.1,0,1,0,2.111,2.089Z" transform="translate(-350.813 -320.835)" fill="#6e7174"/>
          <path id="Tracciato_10" data-name="Tracciato 10" d="M412.766,330.624h-.588l.881-1.893-2.48-5.287h.609l2.165,4.678,2.186-4.678h.588Z" transform="translate(-357.291 -320.942)" fill="#6e7174"/>
          <path id="Tracciato_11" data-name="Tracciato 11" d="M430.325,319.852a.419.419,0,0,1-.838,0,.419.419,0,0,1,.838,0Zm-.675,6.941v-5.32h.522v5.32Z" transform="translate(-366.645 -318.96)" fill="#6e7174"/>
          <path id="Tracciato_12" data-name="Tracciato 12" d="M440.057,325.492v3.166h-.533v-3.09a1.677,1.677,0,0,0-1.675-1.861,2.058,2.058,0,0,0-2.122,2.285v2.665H435.2v-5.32h.533v1.132a2.336,2.336,0,0,1,2.186-1.262A2.1,2.1,0,0,1,440.057,325.492Z" transform="translate(-369.468 -320.825)" fill="#6e7174"/>
          <path id="Tracciato_13" data-name="Tracciato 13" d="M449.849,328.775h-.588l-2.437-5.331h.6l2.132,4.721,2.132-4.721h.6Z" transform="translate(-375.222 -320.942)" fill="#6e7174"/>
          <path id="Tracciato_14" data-name="Tracciato 14" d="M464.161,326.047h-4.819a2.2,2.2,0,0,0,2.165,2.263,2.077,2.077,0,0,0,2.067-1.36l.468.109a2.517,2.517,0,0,1-2.535,1.719,2.681,2.681,0,0,1-2.687-2.763,2.719,2.719,0,0,1,2.752-2.807,2.561,2.561,0,0,1,2.589,2.644Zm-4.8-.414h4.264a2.012,2.012,0,0,0-2.056-1.947A2.215,2.215,0,0,0,459.364,325.633Z" transform="translate(-381.156 -320.825)" fill="#6e7174"/>
          <path id="Tracciato_15" data-name="Tracciato 15" d="M472.113,327.069c.076.794.816,1.262,1.806,1.262.891,0,1.5-.4,1.5-1.088,0-.566-.435-.794-1.012-.925l-1.306-.283c-.848-.185-1.316-.577-1.316-1.295,0-.914.794-1.534,1.947-1.534a1.96,1.96,0,0,1,2.089,1.436l-.49.131a1.49,1.49,0,0,0-1.61-1.121c-.849,0-1.4.413-1.4,1.055,0,.555.4.762.979.892l1.283.282c.7.164,1.36.479,1.36,1.327,0,.99-.837,1.566-2.056,1.566-1.251,0-2.154-.577-2.3-1.578Z" transform="translate(-387.474 -320.825)" fill="#6e7174"/>
          <path id="Tracciato_16" data-name="Tracciato 16" d="M485.263,326.766a1.791,1.791,0,0,1-1.164.424,1.494,1.494,0,0,1-1.588-1.621v-3.361h-1.164v-.457h1.164V320h.533v1.751h1.991v.457h-1.991v3.329a1.047,1.047,0,0,0,1.088,1.153,1.43,1.43,0,0,0,.925-.359Z" transform="translate(-392.299 -319.238)" fill="#6e7174"/>
          <path id="Tracciato_17" data-name="Tracciato 17" d="M499.747,325.144v3.514h-.533V325.22a1.436,1.436,0,0,0-1.523-1.512c-1.109,0-1.839.816-1.839,2.154v2.8h-.533V325.22a1.436,1.436,0,0,0-1.523-1.512c-1.088,0-1.817.816-1.817,2.154v2.8h-.533v-5.32h.533v1.044a2.057,2.057,0,0,1,1.936-1.175,1.835,1.835,0,0,1,1.839,1.251,2.2,2.2,0,0,1,2.056-1.251A1.85,1.85,0,0,1,499.747,325.144Z" transform="translate(-397.296 -320.825)" fill="#6e7174"/>
          <path id="Tracciato_18" data-name="Tracciato 18" d="M516.126,326.047h-4.819a2.2,2.2,0,0,0,2.165,2.263,2.077,2.077,0,0,0,2.067-1.36l.467.109a2.516,2.516,0,0,1-2.535,1.719,2.681,2.681,0,0,1-2.688-2.763,2.72,2.72,0,0,1,2.753-2.807,2.561,2.561,0,0,1,2.589,2.644Zm-4.8-.414h4.264a2.012,2.012,0,0,0-2.056-1.947A2.215,2.215,0,0,0,511.329,325.633Z" transform="translate(-406.863 -320.825)" fill="#6e7174"/>
          <path id="Tracciato_19" data-name="Tracciato 19" d="M529.322,325.492v3.166h-.533v-3.09a1.677,1.677,0,0,0-1.676-1.861,2.058,2.058,0,0,0-2.121,2.285v2.665h-.533v-5.32h.533v1.132a2.335,2.335,0,0,1,2.186-1.262A2.1,2.1,0,0,1,529.322,325.492Z" transform="translate(-413.628 -320.825)" fill="#6e7174"/>
          <path id="Tracciato_20" data-name="Tracciato 20" d="M539.834,326.766a1.791,1.791,0,0,1-1.164.424,1.494,1.494,0,0,1-1.589-1.621v-3.361h-1.164v-.457h1.164V320h.533v1.751h1.991v.457h-1.991v3.329a1.047,1.047,0,0,0,1.088,1.153,1.43,1.43,0,0,0,.925-.359Z" transform="translate(-419.296 -319.238)" fill="#6e7174"/>
          <path id="Tracciato_21" data-name="Tracciato 21" d="M545.636,327.069c.076.794.816,1.262,1.806,1.262.892,0,1.5-.4,1.5-1.088,0-.566-.436-.794-1.012-.925l-1.306-.283c-.849-.185-1.317-.577-1.317-1.295,0-.914.795-1.534,1.948-1.534a1.96,1.96,0,0,1,2.089,1.436l-.49.131a1.49,1.49,0,0,0-1.61-1.121c-.848,0-1.4.413-1.4,1.055,0,.555.4.762.979.892l1.283.282c.7.164,1.36.479,1.36,1.327,0,.99-.837,1.566-2.056,1.566-1.251,0-2.154-.577-2.3-1.578Z" transform="translate(-423.846 -320.825)" fill="#6e7174"/>
        </g>
      </g>
      <g id="Raggruppa_5" data-name="Raggruppa 5" transform="translate(0)">
        <g id="Raggruppa_4" data-name="Raggruppa 4" transform="translate(115.527 8.133)">
          <g id="Raggruppa_3" data-name="Raggruppa 3">
            <path id="Tracciato_22" data-name="Tracciato 22" d="M508.795,223.024c-7.831-.739-12.388,2.958-15.493,9.01-1.8,3.512-3.307,7.217-5.451,10.505-3.723,5.71-10.391,7.292-16.561,3.982,6.586.491,10.156-3.232,12.943-7.956,2.22-3.763,4.029-7.771,6.3-11.5C494.483,220.589,501.87,218.842,508.795,223.024Z" transform="translate(-471.291 -220.756)" fill="#6e7174"/>
            <path id="Tracciato_23" data-name="Tracciato 23" d="M530.958,244.964c-8.4-.771-12.871,3.7-16.069,10.1-1.575,3.153-2.868,6.493-4.8,9.408-3.563,5.374-9.377,7.012-15.243,4.553a5.625,5.625,0,0,1,1.13-.438c4.276-.516,7.3-2.979,9.459-6.462,1.813-2.92,3.122-6.154,4.956-9.059a40.041,40.041,0,0,1,5.883-7.777C520.03,241.712,526.039,241.676,530.958,244.964Z" transform="translate(-482.944 -231.538)" fill="#6e7174"/>
            <path id="Tracciato_24" data-name="Tracciato 24" d="M482.7,258.235c6.583-.235,10.375-4.208,13.113-9.626,1.59-3.147,3.067-6.364,4.85-9.4,3.757-6.4,10.361-8.643,16.859-5.915.351.148.667.376,1.68.957-8.2-.491-12.431,3.877-15.518,9.935-1.638,3.216-3.161,6.509-5.051,9.573C495.171,259.372,488.951,261.12,482.7,258.235Z" transform="translate(-476.934 -226.395)" fill="#6e7174"/>
          </g>
        </g>
        <path id="Tracciato_25" data-name="Tracciato 25" d="M286.256,227.317c0,12.587-10.134,22.528-23.044,22.528s-23.044-9.941-23.044-22.528a23.048,23.048,0,0,1,46.088,0Zm-10.651,0c0-7.423-5.358-12.91-12.394-12.91s-12.393,5.486-12.393,12.91c0,7.359,5.358,12.781,12.393,12.781S275.606,234.676,275.606,227.317Z" transform="translate(-240.168 -204.66)" fill="#173c79"/>
        <path id="Tracciato_26" data-name="Tracciato 26" d="M355.327,260.378H344.805L331.379,227.91h10.909l7.811,20.01,7.746-20.01h10.909Z" transform="translate(-285.667 -216.162)" fill="#173c79"/>
        <path id="Tracciato_27" data-name="Tracciato 27" d="M433.281,245.939H409.528c.839,3.873,3.486,6.261,6.971,6.261,2.389,0,5.164-.581,6.906-3.744l9.167,1.872c-2.776,6.843-8.65,10.135-16.073,10.135a17.17,17.17,0,0,1,.064-34.34c9.167,0,16.525,6.584,16.718,17.17Zm-23.56-6.326h13.362a6.474,6.474,0,0,0-6.52-5.1A7.1,7.1,0,0,0,409.721,239.613Z" transform="translate(-319.581 -215.277)" fill="#173c79"/>
        <path id="Tracciato_28" data-name="Tracciato 28" d="M593.966,250.808a16.645,16.645,0,0,1-6.456,1.249c-8.069,0-12.909-4.389-12.909-12.91V226.883h-5.874v-8.2H574.6v-9.554h10.328v9.554h9.037v8.2h-9.037v11.231c0,3.357,1.613,4.712,4.325,4.712a10.555,10.555,0,0,0,4.712-1.291Z" transform="translate(-403.966 -206.872)" fill="#173c79"/>
      </g>
    </g>
  </g>
</svg>
